<?xml version="1.0" encoding="UTF-8"?>
<svg version="1.1" xmlns="http://www.w3.org/2000/svg" width="499" height="63">
<path d="M0 0 C1.22589844 -0.00257812 2.45179688 -0.00515625 3.71484375 -0.0078125 C6.39012431 0.09832465 8.53177428 0.32582346 11.0625 1.125 C11.0625 1.785 11.0625 2.445 11.0625 3.125 C11.7225 3.125 12.3825 3.125 13.0625 3.125 C13.0625 3.785 13.0625 4.445 13.0625 5.125 C13.7225 5.125 14.3825 5.125 15.0625 5.125 C16.5475 9.085 16.5475 9.085 18.0625 13.125 C18.43375 11.908125 18.805 10.69125 19.1875 9.4375 C20.49871722 5.13962132 23.16671428 2.28357678 27.0625 0.125 C29.83116782 -0.46295854 32.43384404 -0.40054106 35.25 -0.25 C35.96091797 -0.23582031 36.67183594 -0.22164062 37.40429688 -0.20703125 C40.51960541 -0.11911097 43.09238137 0.13496046 46.0625 1.125 C46.0625 1.785 46.0625 2.445 46.0625 3.125 C46.7225 3.125 47.3825 3.125 48.0625 3.125 C48.0625 3.785 48.0625 4.445 48.0625 5.125 C48.7225 5.125 49.3825 5.125 50.0625 5.125 C51.72628107 8.04831708 52.31914105 10.16847462 52.35302734 13.52294922 C52.36578705 14.38419403 52.37854675 15.24543884 52.39169312 16.13278198 C52.39391876 17.0557608 52.39614441 17.97873962 52.3984375 18.9296875 C52.4084227 20.36479172 52.4084227 20.36479172 52.41860962 21.82888794 C52.42872642 23.85123779 52.43342694 25.87362096 52.43310547 27.89599609 C52.43747453 30.98200817 52.47379322 34.06658501 52.51171875 37.15234375 C52.51758801 39.11978679 52.52155667 41.0872366 52.5234375 43.0546875 C52.53780853 43.97361786 52.55217957 44.89254822 52.56698608 45.83932495 C52.52721645 51.44645336 51.81902565 54.68197605 48.0625 59.125 C43.3296565 63.2841655 38.94507338 63.3916405 32.87109375 63.359375 C29.03728421 63.03944653 26.43732537 61.92490686 23.0625 60.125 C23.0625 59.465 23.0625 58.805 23.0625 58.125 C22.4025 58.125 21.7425 58.125 21.0625 58.125 C17.85864614 51.11603284 17.52824293 44.76963287 17.375 37.125 C17.34083984 35.96871094 17.30667969 34.81242187 17.27148438 33.62109375 C17.18956892 30.78915954 17.12023478 27.95751299 17.0625 25.125 C16.83393311 25.69420166 16.60536621 26.26340332 16.36987305 26.84985352 C14.12228574 32.20287309 11.54634517 36.58248849 7.875 41.0625 C4.67461581 44.89804196 4.67461581 44.89804196 2.0625 49.125 C7.0125 49.125 11.9625 49.125 17.0625 49.125 C17.0625 53.415 17.0625 57.705 17.0625 62.125 C6.1725 62.125 -4.7175 62.125 -15.9375 62.125 C-15.9375 49.38587108 -12.25053056 44.13697915 -4.91601562 34.68164062 C-1.05670526 29.59074841 2.60154992 24.36694848 2.25 17.6875 C2.188125 16.511875 2.12625 15.33625 2.0625 14.125 C1.0725 14.125 0.0825 14.125 -0.9375 14.125 C-1.2675 17.755 -1.5975 21.385 -1.9375 25.125 C-6.5575 25.125 -11.1775 25.125 -15.9375 25.125 C-15.99175226 22.72885874 -16.03129027 20.33396147 -16.0625 17.9375 C-16.07925781 17.26396484 -16.09601563 16.59042969 -16.11328125 15.89648438 C-16.15288674 11.83692193 -15.73770002 8.77501185 -13.9375 5.125 C-13.2775 5.125 -12.6175 5.125 -11.9375 5.125 C-11.9375 4.465 -11.9375 3.805 -11.9375 3.125 C-11.2775 3.125 -10.6175 3.125 -9.9375 3.125 C-9.9375 2.465 -9.9375 1.805 -9.9375 1.125 C-6.45291293 -0.03652902 -3.67059492 -0.00770324 0 0 Z M33.0625 13.125 C33.0625 25.005 33.0625 36.885 33.0625 49.125 C34.3825 49.455 35.7025 49.785 37.0625 50.125 C39.30190505 45.6461899 38.24834417 39.50640557 38.24780273 34.52197266 C38.24998476 32.26575741 38.26813167 30.01003466 38.28710938 27.75390625 C38.29004431 26.31771 38.29202844 24.88151144 38.29296875 23.4453125 C38.29913208 21.48489014 38.29913208 21.48489014 38.30541992 19.48486328 C38.08141033 16.38655175 37.71046546 14.70410472 36.0625 12.125 C34.8388932 12.0504644 34.8388932 12.0504644 33.0625 13.125 Z " fill="#ECECEC" transform="translate(369.9375,-0.125)"/>
<path d="M0 0 C2.14576637 -0.02685938 4.29162645 -0.04633088 6.4375 -0.0625 C7.63246094 -0.07410156 8.82742188 -0.08570313 10.05859375 -0.09765625 C13 -0 13 -0 14 1 C14.22670908 2.55753051 14.39435092 4.12377359 14.53515625 5.69140625 C14.62216797 6.63564453 14.70917969 7.57988281 14.79882812 8.55273438 C14.88583984 9.54595703 14.97285156 10.53917969 15.0625 11.5625 C15.15337891 12.55958984 15.24425781 13.55667969 15.33789062 14.58398438 C15.56258814 17.05565702 15.78310351 19.52763256 16 22 C16.13277344 20.74703125 16.26554687 19.4940625 16.40234375 18.203125 C16.58058291 16.55206754 16.7589764 14.90102673 16.9375 13.25 C17.02451172 12.425 17.11152344 11.6 17.20117188 10.75 C17.28818359 9.95078125 17.37519531 9.1515625 17.46484375 8.328125 C17.543396 7.5949707 17.62194824 6.86181641 17.70288086 6.10644531 C18 4 18 4 19 0 C22.96 0 26.92 0 31 0 C33.09134342 8.49608263 33.20880739 16.29969208 33 25 C33.66 25 34.32 25 35 25 C34.98839844 24.03320312 34.97679687 23.06640625 34.96484375 22.0703125 C34.91322671 14.62271142 35.08849601 7.40596991 36 0 C40.62 0 45.24 0 50 0 C49.05752446 15.19048819 47.86894541 30.22757847 45.6640625 45.2890625 C44.85427026 50.8505282 44.37898034 56.3910909 44 62 C38.39 62 32.78 62 27 62 C25.85922343 58.57767028 25.90184883 55.91326783 25.9375 52.3125 C25.94652344 51.13300781 25.95554687 49.95351563 25.96484375 48.73828125 C25.97644531 47.83464844 25.98804687 46.93101563 26 46 C25.34 46 24.68 46 24 46 C23.67 51.28 23.34 56.56 23 62 C17.39 62 11.78 62 6 62 C4.77387706 53.90758859 3.74525163 45.9120777 3.24609375 37.7421875 C3.0860387 35.12437482 3.0860387 35.12437482 2.51806641 33.1340332 C1.50030152 28.94162844 1.32017177 24.60125845 0.9375 20.3125 C0.84662109 19.35666016 0.75574219 18.40082031 0.66210938 17.41601562 C0.13330649 11.58328001 -0.09046742 5.85625752 0 0 Z " fill="#E8E8E8" transform="translate(7,0)"/>
<path d="M0 0 C4.62 0 9.24 0 14 0 C14.66 2.97 15.32 5.94 16 9 C16.144375 7.700625 16.28875 6.40125 16.4375 5.0625 C16.875 1.125 16.875 1.125 18 0 C22.29 0 26.58 0 31 0 C31 20.46 31 40.92 31 62 C26.38 62 21.76 62 17 62 C15.515 54.575 15.515 54.575 14 47 C13.67 51.95 13.34 56.9 13 62 C8.71 62 4.42 62 0 62 C0 41.54 0 21.08 0 0 Z " fill="#E9E9E9" transform="translate(130,0)"/>
<path d="M0 0 C4.62 0 9.24 0 14 0 C16.34490728 2.34490728 16.4292014 7.99379402 17 11 C17.33 7.37 17.66 3.74 18 0 C22.29 0 26.58 0 31 0 C31 20.46 31 40.92 31 62 C26.71 62 22.42 62 18 62 C16.45263302 56.0315845 15.17692267 50.05274518 14 44 C13.67 49.94 13.34 55.88 13 62 C8.71 62 4.42 62 0 62 C0 41.54 0 21.08 0 0 Z " fill="#EBEBEB" transform="translate(94,0)"/>
<path d="M0 0 C4.29 0 8.58 0 13 0 C13.93854006 7.03905044 14.10808032 13.90272572 14 21 C15.32 21.33 16.64 21.66 18 22 C18 14.74 18 7.48 18 0 C22.62 0 27.24 0 32 0 C32 20.46 32 40.92 32 62 C29.51245214 63.24377393 27.77344699 63.13306235 25 63.125 C24.113125 63.12757812 23.22625 63.13015625 22.3125 63.1328125 C20 63 20 63 18 62 C18 53.09 18 44.18 18 35 C16.35 35 14.7 35 13 35 C13 43.91 13 52.82 13 62 C9.10835652 63.29721449 6.10570774 63.13033993 2 63 C1.34 62.67 0.68 62.34 0 62 C0 41.54 0 21.08 0 0 Z " fill="#DE2215" transform="translate(200,0)"/>
<path d="M0 0 C10.23 0 20.46 0 31 0 C31 4.29 31 8.58 31 13 C25.39 13 19.78 13 14 13 C14 14.65 14 16.3 14 18 C15.03125 17.79375 16.0625 17.5875 17.125 17.375 C22.1691446 16.88685697 25.19841272 17.64880954 29.25 20.6875 C33.41363967 26.18945242 33.33895877 32.74972464 33.3125 39.375 C33.32861328 40.17421875 33.34472656 40.9734375 33.36132812 41.796875 C33.36598797 47.55644367 32.50130089 52.76417987 30 58 C25.44987984 62.43914161 22.50476342 63.17082578 16.25 63.25 C15.03828125 63.27578125 13.8265625 63.3015625 12.578125 63.328125 C7.86268787 62.895705 4.44459185 61.54421887 1.1875 58.0625 C-2.2882782 52.02562207 -1.06215153 44.71236537 -1 38 C3.62 38 8.24 38 13 38 C13.33 41.96 13.66 45.92 14 50 C15.485 49.505 15.485 49.505 17 49 C17 42.4 17 35.8 17 29 C16.01 29 15.02 29 14 29 C13.505 31.475 13.505 31.475 13 34 C11.02090602 34.02686553 9.04171029 34.04633375 7.0625 34.0625 C5.96035156 34.07410156 4.85820312 34.08570313 3.72265625 34.09765625 C1 34 1 34 0 33 C-0.08843793 30.55169574 -0.11528752 28.13179401 -0.09765625 25.68359375 C-0.0962413 24.95253922 -0.09482635 24.22148468 -0.09336853 23.46827698 C-0.08775408 21.12464368 -0.07519922 18.78110461 -0.0625 16.4375 C-0.05748686 14.85221492 -0.05292363 13.26692834 -0.04882812 11.68164062 C-0.03862921 7.78769457 -0.01905687 3.89395323 0 0 Z " fill="#DEDEDE" transform="translate(460,0)"/>
<path d="M0 0 C4.62 0 9.24 0 14 0 C14.33 2.97 14.66 5.94 15 9 C15.99 6.03 16.98 3.06 18 0 C22.62 0 27.24 0 32 0 C31.3781885 3.02152093 30.75265425 6.04219214 30.125 9.0625 C29.86396484 10.33383789 29.86396484 10.33383789 29.59765625 11.63085938 C28.81867643 15.36707741 28.02216114 18.93402352 26.8046875 22.55859375 C24.80071616 31.12897605 28.06211463 40.14572236 30.0625 48.5 C30.61668618 50.84356079 31.17011569 53.18730068 31.72265625 55.53125 C31.96765869 56.55798828 32.21266113 57.58472656 32.46508789 58.64257812 C33 61 33 61 33 62 C31.06325815 62.19517554 29.12555991 62.38087873 27.1875 62.5625 C26.10855469 62.66691406 25.02960938 62.77132812 23.91796875 62.87890625 C21 63 21 63 18 62 C17.05078125 58.83984375 17.05078125 58.83984375 16.3125 54.9375 C16.06113281 53.64714844 15.80976563 52.35679688 15.55078125 51.02734375 C15.36902344 50.02832031 15.18726563 49.02929688 15 48 C14.67 52.62 14.34 57.24 14 62 C12.06125 62.185625 10.1225 62.37125 8.125 62.5625 C7.03445313 62.66691406 5.94390625 62.77132812 4.8203125 62.87890625 C2 63 2 63 0 62 C0 41.54 0 21.08 0 0 Z " fill="#DD2216" transform="translate(304,0)"/>
<path d="M0 0 C7.59 0 15.18 0 23 0 C23.76199297 3.04797188 24.21937267 5.61264205 24.48071289 8.70166016 C24.56072037 9.63007721 24.64072784 10.55849426 24.72315979 11.51504517 C24.80549362 12.51297089 24.88782745 13.51089661 24.97265625 14.5390625 C25.06002548 15.57509613 25.14739471 16.61112976 25.2374115 17.67855835 C25.42140859 19.8723183 25.60370291 22.06622164 25.78442383 24.26025391 C26.05976927 27.59195797 26.34299831 30.92292628 26.62695312 34.25390625 C26.80516836 36.39058495 26.98291744 38.52730259 27.16015625 40.6640625 C27.24451431 41.64984283 27.32887238 42.63562317 27.41578674 43.65127563 C27.91379754 49.78983047 28.07533116 55.84106452 28 62 C23.71 62 19.42 62 15 62 C15 58.7 15 55.4 15 52 C13.02 52 11.04 52 9 52 C8.67 55.3 8.34 58.6 8 62 C3.71 62 -0.58 62 -5 62 C-5.11308035 54.16635886 -4.71081946 46.5584823 -3.90625 38.76953125 C-3.79526978 37.65309738 -3.68428955 36.53666351 -3.56994629 35.38639832 C-3.21836155 31.86123612 -2.85931094 28.33688218 -2.5 24.8125 C-2.25861826 22.40564868 -2.01772816 19.99874801 -1.77734375 17.59179688 C-1.19148674 11.72716619 -0.59551438 5.8636898 0 0 Z M11 18 C10.67 25.92 10.34 33.84 10 42 C10.99 42 11.98 42 13 42 C13.14525497 33.94641862 12.71413279 26.02124152 12 18 C11.67 18 11.34 18 11 18 Z " fill="#E4E4E4" transform="translate(169,0)"/>
<path d="M0 0 C7.26 0 14.52 0 22 0 C23.36309218 9.80833718 24.53683586 19.60003628 25.43261719 29.46166992 C25.62528822 31.56564735 25.82810514 33.66849557 26.03125 35.77148438 C26.85130974 44.5478113 27.17163978 53.17788863 27 62 C23.34649162 63.82675419 18.94412788 62.45509168 15 62 C14.505 57.05 14.505 57.05 14 52 C12.02 52 10.04 52 8 52 C8.020625 53.093125 8.04125 54.18625 8.0625 55.3125 C8 59 8 59 7 62 C3.79984144 63.06671952 2.11455706 62.94845472 -1.1875 62.5625 C-2.03739502 62.46316162 -2.88729004 62.36382324 -3.76293945 62.26147461 C-4.50116943 62.17518799 -5.23939941 62.08890137 -6 62 C-5.36759261 50.61299561 -4.62935669 39.23760663 -3.75268555 27.86669922 C-3.6245467 26.18789939 -3.49961166 24.50885232 -3.37768555 22.82958984 C-3.19764537 20.35195082 -3.00807906 17.87520056 -2.81640625 15.3984375 C-2.76424454 14.65669281 -2.71208282 13.91494812 -2.65834045 13.15072632 C-2.60165695 12.44533722 -2.54497345 11.73994812 -2.48657227 11.01318359 C-2.44073502 10.40493744 -2.39489777 9.79669128 -2.34767151 9.17001343 C-1.84851415 6.05449162 -0.86681522 3.03385326 0 0 Z M10 17 C9.67 25.25 9.34 33.5 9 42 C10.32 42 11.64 42 13 42 C12.34 33.75 11.68 25.5 11 17 C10.67 17 10.34 17 10 17 Z " fill="#D92216" transform="translate(240,0)"/>
<path d="M0 0 C0.91644287 0.00523682 1.83288574 0.01047363 2.77709961 0.01586914 C3.76645508 0.0190918 4.75581055 0.02231445 5.77514648 0.02563477 C6.81606445 0.03401367 7.85698242 0.04239258 8.92944336 0.05102539 C10.49662109 0.05779297 10.49662109 0.05779297 12.09545898 0.06469727 C14.68600996 0.07652627 17.27644895 0.0930085 19.86694336 0.11352539 C21.42714001 10.96819287 22.52860639 21.81186081 23.42944336 32.73852539 C23.61778453 35.01167513 23.80725855 37.2847029 24.00022888 39.5574646 C24.17293264 41.59234978 24.34148259 43.62758626 24.50976562 45.6628418 C24.80824214 48.54641462 25.26462251 51.28312513 25.86694336 54.11352539 C25.98373135 56.79030612 25.91239396 59.43193996 25.86694336 62.11352539 C21.24694336 62.11352539 16.62694336 62.11352539 11.86694336 62.11352539 C11.86694336 58.81352539 11.86694336 55.51352539 11.86694336 52.11352539 C9.88694336 52.11352539 7.90694336 52.11352539 5.86694336 52.11352539 C5.53694336 55.41352539 5.20694336 58.71352539 4.86694336 62.11352539 C0.24694336 62.11352539 -4.37305664 62.11352539 -9.13305664 62.11352539 C-8.82389881 58.55070651 -8.51086164 54.98830102 -8.19555664 51.42602539 C-8.10854492 50.41862305 -8.0215332 49.4112207 -7.93188477 48.37329102 C-7.84487305 47.39682617 -7.75786133 46.42036133 -7.66821289 45.41430664 C-7.58966064 44.51881104 -7.5111084 43.62331543 -7.43017578 42.70068359 C-7.1349214 40.1297627 -6.64585493 37.64855397 -6.13305664 35.11352539 C-5.93756791 32.61561388 -5.77314792 30.1151553 -5.63305664 27.61352539 C-5.3931853 23.33010858 -4.97762407 19.30996981 -4.13305664 15.11352539 C-3.83946235 11.44359674 -3.62781409 7.77327865 -3.41430664 4.09790039 C-3.0433817 0.16197465 -3.0433817 0.16197465 0 0 Z M7.86694336 21.11352539 C6.94602055 25.76889895 6.74488338 30.26037972 6.80444336 34.98852539 C6.80895508 35.67688477 6.8134668 36.36524414 6.81811523 37.07446289 C6.82978 38.75418874 6.84771065 40.43386914 6.86694336 42.11352539 C8.18694336 42.11352539 9.50694336 42.11352539 10.86694336 42.11352539 C10.20694336 35.18352539 9.54694336 28.25352539 8.86694336 21.11352539 C8.53694336 21.11352539 8.20694336 21.11352539 7.86694336 21.11352539 Z " fill="#E5E5E5" transform="translate(66.133056640625,-0.113525390625)"/>
<path d="M0 0 C1.31613281 -0.02578125 2.63226563 -0.0515625 3.98828125 -0.078125 C8.92403407 0.35968201 11.29177363 1.61812036 14.48828125 5.35546875 C16.19102582 9.46535059 16.01036639 13.16482782 15.875 17.5625 C15.85469727 18.81643555 15.85469727 18.81643555 15.83398438 20.09570312 C15.79881217 22.14741498 15.74501048 24.19879275 15.6875 26.25 C11.0675 26.25 6.4475 26.25 1.6875 26.25 C1.1925 19.815 1.1925 19.815 0.6875 13.25 C0.3575 13.25 0.0275 13.25 -0.3125 13.25 C-0.6425 25.46 -0.9725 37.67 -1.3125 50.25 C-0.3225 50.25 0.6675 50.25 1.6875 50.25 C1.6875 45.3 1.6875 40.35 1.6875 35.25 C6.3075 35.25 10.9275 35.25 15.6875 35.25 C15.79595027 38.29263267 15.87502063 41.33136204 15.9375 44.375 C15.97101563 45.2309375 16.00453125 46.086875 16.0390625 46.96875 C16.12560861 52.59424695 15.49478724 55.81163236 11.6875 60.25 C6.52720497 64.02582563 0.84212323 64.05394208 -5.3125 63.25 C-9.15009254 61.9592365 -11.69590438 60.05157431 -14.1875 56.8125 C-16.36860409 51.84442956 -16.47186216 46.96363614 -16.48046875 41.60546875 C-16.48379715 40.87685135 -16.48712555 40.14823395 -16.49055481 39.39753723 C-16.49560097 37.86032743 -16.49796385 36.32310675 -16.49780273 34.78588867 C-16.49998327 32.45537894 -16.51814681 30.12534765 -16.53710938 27.79492188 C-16.54004513 26.29427243 -16.54202871 24.79362077 -16.54296875 23.29296875 C-16.55015427 22.60623581 -16.55733978 21.91950287 -16.56474304 21.21195984 C-16.52700947 13.06873295 -15.01627475 7.09636912 -9.3125 1.25 C-6.32534862 -0.24357569 -3.27362064 0.02496565 0 0 Z " fill="#C11E15" transform="translate(285.3125,-0.25)"/>
<path d="M0 0 C1.22589844 -0.00257812 2.45179688 -0.00515625 3.71484375 -0.0078125 C6.39012431 0.09832465 8.53177428 0.32582346 11.0625 1.125 C11.0625 1.785 11.0625 2.445 11.0625 3.125 C11.7225 3.125 12.3825 3.125 13.0625 3.125 C13.0625 3.785 13.0625 4.445 13.0625 5.125 C13.7225 5.125 14.3825 5.125 15.0625 5.125 C16.5475 9.085 16.5475 9.085 18.0625 13.125 C18.68125 11.26875 18.68125 11.26875 19.3125 9.375 C20.63948063 5.82799963 22.00583534 3.49145006 25.0625 1.125 C25.7225 1.125 26.3825 1.125 27.0625 1.125 C26.09679775 3.27925887 25.31618528 4.89245516 23.5625 6.5 C19.53297004 10.86532412 19.73426604 16.96502863 19.6484375 22.5859375 C19.62907135 23.37650543 19.6097052 24.16707336 19.5897522 24.9815979 C19.53033947 27.48762483 19.48372573 29.99369865 19.4375 32.5 C19.39928487 34.20705043 19.36023111 35.91408231 19.3203125 37.62109375 C19.22466989 41.78891044 19.14049885 45.9568173 19.0625 50.125 C18.7325 50.125 18.4025 50.125 18.0625 50.125 C17.5675 37.75 17.5675 37.75 17.0625 25.125 C15.0825 29.58 15.0825 29.58 13.0625 34.125 C11.37899784 36.54293321 9.73137651 38.79722999 7.875 41.0625 C4.67461581 44.89804196 4.67461581 44.89804196 2.0625 49.125 C7.0125 49.125 11.9625 49.125 17.0625 49.125 C17.0625 53.415 17.0625 57.705 17.0625 62.125 C6.1725 62.125 -4.7175 62.125 -15.9375 62.125 C-15.9375 49.38587108 -12.25053056 44.13697915 -4.91601562 34.68164062 C-1.05670526 29.59074841 2.60154992 24.36694848 2.25 17.6875 C2.188125 16.511875 2.12625 15.33625 2.0625 14.125 C1.0725 14.125 0.0825 14.125 -0.9375 14.125 C-1.2675 17.755 -1.5975 21.385 -1.9375 25.125 C-6.5575 25.125 -11.1775 25.125 -15.9375 25.125 C-15.99175226 22.72885874 -16.03129027 20.33396147 -16.0625 17.9375 C-16.07925781 17.26396484 -16.09601563 16.59042969 -16.11328125 15.89648438 C-16.15288674 11.83692193 -15.73770002 8.77501185 -13.9375 5.125 C-13.2775 5.125 -12.6175 5.125 -11.9375 5.125 C-11.9375 4.465 -11.9375 3.805 -11.9375 3.125 C-11.2775 3.125 -10.6175 3.125 -9.9375 3.125 C-9.9375 2.465 -9.9375 1.805 -9.9375 1.125 C-6.45291293 -0.03652902 -3.67059492 -0.00770324 0 0 Z " fill="#ECECEC" transform="translate(369.9375,-0.125)"/>
<path d="M0 0 C1.18464844 -0.00773438 2.36929687 -0.01546875 3.58984375 -0.0234375 C8.84061541 0.57901324 12.03301216 2.15586967 15.4375 6.1875 C18.57655813 12.39966966 18.19734226 20.62047515 16.2265625 27.140625 C15.27441151 29.30265206 14.23652087 31.32689061 13.0625 33.375 C12.3902759 34.70554011 11.72202711 36.03812072 11.0625 37.375 C10.4025 37.375 9.7425 37.375 9.0625 37.375 C8.835625 37.890625 8.60875 38.40625 8.375 38.9375 C6.5649447 42.29903127 4.32253596 45.30411144 2.0625 48.375 C3.56103516 48.46587891 3.56103516 48.46587891 5.08984375 48.55859375 C6.38019531 48.64238281 7.67054688 48.72617187 9 48.8125 C10.28777344 48.89371094 11.57554687 48.97492187 12.90234375 49.05859375 C16.0625 49.375 16.0625 49.375 17.0625 50.375 C17.0625 54.335 17.0625 58.295 17.0625 62.375 C6.1725 62.375 -4.7175 62.375 -15.9375 62.375 C-15.9375 49.18354542 -13.66293454 45.20991485 -5.8359375 35.6953125 C0.00829555 28.552361 2.38194871 22.63901254 2.0625 13.375 C0.7425 13.375 -0.5775 13.375 -1.9375 13.375 C-1.9375 17.335 -1.9375 21.295 -1.9375 25.375 C-6.5575 25.375 -11.1775 25.375 -15.9375 25.375 C-17.25320115 18.50411622 -17.47163715 12.33369308 -14.1875 6 C-9.95965273 1.06751152 -6.43740004 -0.04193746 0 0 Z " fill="#E8E8E8" transform="translate(440.9375,-0.375)"/>
<path d="M0 0 C2.97 0 5.94 0 9 0 C9.03738281 1.16015625 9.07476562 2.3203125 9.11328125 3.515625 C9.47592674 12.68495415 10.248668 21.17497284 13 30 C12.01 30.33 11.02 30.66 10 31 C9.67 39.91 9.34 48.82 9 58 C6.03 58 3.06 58 0 58 C0 38.86 0 19.72 0 0 Z " fill="#DE2116" transform="translate(306,2)"/>
<path d="M0 0 C4.29 0 8.58 0 13 0 C13.93854006 7.03905044 14.10808032 13.90272572 14 21 C15.32 21.33 16.64 21.66 18 22 C18 14.74 18 7.48 18 0 C22.62 0 27.24 0 32 0 C32 20.46 32 40.92 32 62 C31.34 62 30.68 62 30 62 C29.85513787 56.02674871 29.71284399 50.05344324 29.57275391 44.08007812 C29.52492756 42.05532245 29.47644435 40.03058217 29.42724609 38.00585938 C29.13604166 26.00110524 28.92156905 14.00864971 29 2 C26.03 2 23.06 2 20 2 C20 8.93 20 15.86 20 23 C17.29120665 24.35439668 14.99066732 24.06501451 12 24 C11.80364026 20.54210946 11.61941748 17.08367803 11.4375 13.625 C11.38142578 12.64015625 11.32535156 11.6553125 11.26757812 10.640625 C11.19506836 9.22910156 11.19506836 9.22910156 11.12109375 7.7890625 C11.0739624 6.91975098 11.02683105 6.05043945 10.97827148 5.15478516 C11 3 11 3 12 1 C8.37 1 4.74 1 1 1 C1 21.13 1 41.26 1 62 C0.67 62 0.34 62 0 62 C0 41.54 0 21.08 0 0 Z " fill="#771410" transform="translate(200,0)"/>
<path d="M0 0 C3.63 0 7.26 0 11 0 C10.67 0.66 10.34 1.32 10 2 C7.03 1.67 4.06 1.34 1 1 C1.33 19.81 1.66 38.62 2 58 C5.96 58.495 5.96 58.495 10 59 C9.99476318 58.18732666 9.98952637 57.37465332 9.98413086 56.53735352 C9.96343006 52.87907678 9.95036197 49.22081233 9.9375 45.5625 C9.92493164 43.6434082 9.92493164 43.6434082 9.91210938 41.68554688 C9.90727539 39.86313477 9.90727539 39.86313477 9.90234375 38.00390625 C9.89710693 36.87799072 9.89187012 35.7520752 9.88647461 34.59204102 C10 32 10 32 11 31 C13.9375 30.75 13.9375 30.75 17 31 C19.29755922 34.44633882 19.23643976 35.71068391 19.1953125 39.76171875 C19.18886719 40.87998047 19.18242187 41.99824219 19.17578125 43.15039062 C19.15902344 44.31763672 19.14226562 45.48488281 19.125 46.6875 C19.11597656 47.86634766 19.10695312 49.04519531 19.09765625 50.25976562 C19.07406423 53.17338026 19.0411454 56.08658892 19 59 C21.97 59 24.94 59 28 59 C28 45.14 28 31.28 28 17 C28.33 17 28.66 17 29 17 C29 31.85 29 46.7 29 62 C19 62 19 62 17 61 C17 52.09 17 43.18 17 34 C15.35 34 13.7 34 12 34 C12 42.91 12 51.82 12 61 C8.11651516 62.29449495 5.09302664 62.13203312 1 62 C0 61 0 61 -0.12025452 58.56394958 C-0.11803391 57.48251175 -0.11581329 56.40107391 -0.11352539 55.28686523 C-0.11344986 54.0656749 -0.11337433 52.84448456 -0.11329651 51.58628845 C-0.10818911 50.24372314 -0.10297311 48.90115825 -0.09765625 47.55859375 C-0.09579199 46.19238842 -0.09436813 44.82618243 -0.09336853 43.4599762 C-0.08954394 39.85798305 -0.07971417 36.25603 -0.06866455 32.65405273 C-0.05844916 28.98096255 -0.05387064 25.30786591 -0.04882812 21.63476562 C-0.03809184 14.42315877 -0.02101614 7.211585 0 0 Z " fill="#AE211A" transform="translate(201,1)"/>
<path d="M0 0 C4.62 0 9.24 0 14 0 C14.33 2.97 14.66 5.94 15 9 C15.99 6.03 16.98 3.06 18 0 C22.62 0 27.24 0 32 0 C31.3781885 3.02152093 30.75265425 6.04219214 30.125 9.0625 C29.86396484 10.33383789 29.86396484 10.33383789 29.59765625 11.63085938 C28.81410297 15.38901308 27.99388806 19.01949214 26.84375 22.6875 C25.90796011 26.36134177 25.98756484 29.17937892 26.375 32.9375 C26.48585938 34.08089844 26.59671875 35.22429688 26.7109375 36.40234375 C26.85402344 37.68818359 26.85402344 37.68818359 27 39 C23.10940919 35.72210066 23.10940919 35.72210066 22.609375 32.421875 C22.67898438 31.09929688 22.67898438 31.09929688 22.75 29.75 C22.78609375 28.85796875 22.8221875 27.9659375 22.859375 27.046875 C22.90578125 26.37140625 22.9521875 25.6959375 23 25 C23.66 25 24.32 25 25 25 C24.9175 23.989375 24.835 22.97875 24.75 21.9375 C24.7007301 15.12593675 27.10805762 8.48665961 29 2 C25.7 2 22.4 2 19 2 C19.020625 3.134375 19.04125 4.26875 19.0625 5.4375 C19 9 19 9 18 10 C17.83693398 12.19233203 17.74560325 14.38102302 17.671875 16.578125 C17 19 17 19 12 24 C12 16.41 12 8.82 12 1 C8.37 1 4.74 1 1 1 C1 21.13 1 41.26 1 62 C0.67 62 0.34 62 0 62 C0 41.54 0 21.08 0 0 Z " fill="#851611" transform="translate(304,0)"/>
<path d="M0 0 C2.97 0 5.94 0 9 0 C9.05378021 3.12522772 9.09356575 6.2495371 9.125 9.375 C9.14175781 10.26445313 9.15851563 11.15390625 9.17578125 12.0703125 C9.18222656 12.92109375 9.18867188 13.771875 9.1953125 14.6484375 C9.20578613 15.43395996 9.21625977 16.21948242 9.22705078 17.02880859 C9 19 9 19 7 21 C6.01 21 5.02 21 4 21 C4 21.66 4 22.32 4 23 C2.06280622 23.05406122 0.12518079 23.09282025 -1.8125 23.125 C-2.89144531 23.14820312 -3.97039062 23.17140625 -5.08203125 23.1953125 C-8 23 -8 23 -11 21 C-9.68 19.68 -8.36 18.36 -7 17 C-7.33 16.34 -7.66 15.68 -8 15 C-6.02 14.67 -4.04 14.34 -2 14 C-0.99740493 10.99221479 -0.69685358 8.46179353 -0.4375 5.3125 C-0.35371094 4.31863281 -0.26992188 3.32476562 -0.18359375 2.30078125 C-0.12300781 1.54152344 -0.06242187 0.78226563 0 0 Z " fill="#DE2116" transform="translate(290,37)"/>
<path d="M0 0 C3.63 0 7.26 0 11 0 C11 6.27 11 12.54 11 19 C10.67 19 10.34 19 10 19 C10 13.06 10 7.12 10 1 C7.03 1 4.06 1 1 1 C1 20.14 1 39.28 1 59 C3.97 59 6.94 59 10 59 C9.98952637 58.2886792 9.97905273 57.5773584 9.96826172 56.84448242 C9.92671999 53.62552414 9.90067961 50.40662224 9.875 47.1875 C9.85824219 46.06794922 9.84148437 44.94839844 9.82421875 43.79492188 C9.81777344 42.72177734 9.81132812 41.64863281 9.8046875 40.54296875 C9.79421387 39.55321045 9.78374023 38.56345215 9.77294922 37.54370117 C10 35 10 35 12 32 C15.30164801 35.01454818 16.08530957 37.62088174 16.31640625 42.01171875 C16.35830078 42.76904297 16.40019531 43.52636719 16.44335938 44.30664062 C16.48267578 45.09232422 16.52199219 45.87800781 16.5625 46.6875 C16.60568359 47.48478516 16.64886719 48.28207031 16.69335938 49.10351562 C16.79927368 51.06881447 16.90012551 53.03438496 17 55 C15 52 15 52 14 47 C13.67 51.62 13.34 56.24 13 61 C3.72265625 61.87890625 3.72265625 61.87890625 1 62 C0 61 0 61 -0.12025452 58.56394958 C-0.11803391 57.48251175 -0.11581329 56.40107391 -0.11352539 55.28686523 C-0.11344986 54.0656749 -0.11337433 52.84448456 -0.11329651 51.58628845 C-0.10818911 50.24372314 -0.10297311 48.90115825 -0.09765625 47.55859375 C-0.09579199 46.19238842 -0.09436813 44.82618243 -0.09336853 43.4599762 C-0.08954394 39.85798305 -0.07971417 36.25603 -0.06866455 32.65405273 C-0.05844916 28.98096255 -0.05387064 25.30786591 -0.04882812 21.63476562 C-0.03809184 14.42315877 -0.02101614 7.211585 0 0 Z " fill="#BB2B21" transform="translate(305,1)"/>
<path d="M0 0 C3.63 0 7.26 0 11 0 C10.67 0.66 10.34 1.32 10 2 C7.03 1.67 4.06 1.34 1 1 C1.33 19.81 1.66 38.62 2 58 C5.96 58.495 5.96 58.495 10 59 C9.99476318 58.18732666 9.98952637 57.37465332 9.98413086 56.53735352 C9.96343006 52.87907678 9.95036197 49.22081233 9.9375 45.5625 C9.92493164 43.6434082 9.92493164 43.6434082 9.91210938 41.68554688 C9.90727539 39.86313477 9.90727539 39.86313477 9.90234375 38.00390625 C9.89710693 36.87799072 9.89187012 35.7520752 9.88647461 34.59204102 C10 32 10 32 11 31 C12.99958364 30.95919217 15.00045254 30.95745644 17 31 C17 31.66 17 32.32 17 33 C15.02 33 13.04 33 11 33 C11 42.24 11 51.48 11 61 C7.74696956 62.62651522 4.60774398 62.11453156 1 62 C0 61 0 61 -0.12025452 58.56394958 C-0.11803391 57.48251175 -0.11581329 56.40107391 -0.11352539 55.28686523 C-0.11344986 54.0656749 -0.11337433 52.84448456 -0.11329651 51.58628845 C-0.10818911 50.24372314 -0.10297311 48.90115825 -0.09765625 47.55859375 C-0.09579199 46.19238842 -0.09436813 44.82618243 -0.09336853 43.4599762 C-0.08954394 39.85798305 -0.07971417 36.25603 -0.06866455 32.65405273 C-0.05844916 28.98096255 -0.05387064 25.30786591 -0.04882812 21.63476562 C-0.03809184 14.42315877 -0.02101614 7.211585 0 0 Z " fill="#C52D25" transform="translate(201,1)"/>
<path d="M0 0 C0.33 0 0.66 0 1 0 C2.28241685 11.38144957 3.34176603 22.5318511 3 34 C-0.65350838 35.82675419 -5.05587212 34.45509168 -9 34 C-9.33 30.7 -9.66 27.4 -10 24 C-11.98 24 -13.96 24 -16 24 C-15.95875 25.093125 -15.9175 26.18625 -15.875 27.3125 C-16 31 -16 31 -18 34 C-18.02688151 32.35425434 -18.04634123 30.70838587 -18.0625 29.0625 C-18.07410156 28.14597656 -18.08570313 27.22945312 -18.09765625 26.28515625 C-18 24 -18 24 -17 23 C-15.50261876 22.9020943 -14.00057108 22.87025136 -12.5 22.875 C-11.6853125 22.87242188 -10.870625 22.86984375 -10.03125 22.8671875 C-8 23 -8 23 -7 24 C-6.85884839 26.67058851 -6.95752893 29.32432238 -7 32 C-4.36 32 -1.72 32 1 32 C0.9278125 30.77925781 0.855625 29.55851562 0.78125 28.30078125 C0.2418687 18.85247466 -0.15295984 9.46651477 0 0 Z " fill="#95201B" transform="translate(264,28)"/>
<path d="M0 0 C2 2 2 2 2.1953125 4.8203125 C2.16050781 6.45613281 2.16050781 6.45613281 2.125 8.125 C2.10695312 9.22070312 2.08890625 10.31640625 2.0703125 11.4453125 C2.04710937 12.28835937 2.02390625 13.13140625 2 14 C2.99 14 3.98 14 5 14 C5.33 19.94 5.66 25.88 6 32 C3.26752652 33.36623674 1.01801098 33.128426 -2 33 C-3 32 -3 32 -3.1328125 29.53125 C-3.13023437 28.5309375 -3.12765625 27.530625 -3.125 26.5 C-3.12757813 25.4996875 -3.13015625 24.499375 -3.1328125 23.46875 C-3 21 -3 21 -2 20 C-1.76712992 18.31816052 -1.58735834 16.6287584 -1.4375 14.9375 C-1.35371094 14.01839844 -1.26992187 13.09929688 -1.18359375 12.15234375 C-1.12300781 11.44207031 -1.06242188 10.73179688 -1 10 C-0.67 10 -0.34 10 0 10 C0.18451025 24.78132118 0.18451025 24.78132118 -1 31 C0.32 31 1.64 31 3 31 C2.86722656 30.43796875 2.73445312 29.8759375 2.59765625 29.296875 C0.5646991 19.62177968 0.36654443 9.84846999 0 0 Z " fill="#8B1811" transform="translate(250,11)"/>
<path d="M0 0 C7.26 0 14.52 0 22 0 C23.22544151 8.42491041 24.36128498 16.46966011 24 25 C23.67 25 23.34 25 23 25 C22.66231828 21.93796326 22.33063107 18.87530542 22 15.8125 C21.90460938 14.94818359 21.80921875 14.08386719 21.7109375 13.19335938 C21.62070312 12.35224609 21.53046875 11.51113281 21.4375 10.64453125 C21.31181641 9.48981323 21.31181641 9.48981323 21.18359375 8.31176758 C20.9905808 5.88139573 21 3.43802406 21 1 C14.4 1 7.8 1 1 1 C0.67 8.92 0.34 16.84 0 25 C-0.66 25 -1.32 25 -2 25 C-2 26.65 -2 28.3 -2 30 C-2.33 30 -2.66 30 -3 30 C-2.88926332 26.31192844 -2.75884028 22.62479971 -2.625 18.9375 C-2.57859375 17.37999023 -2.57859375 17.37999023 -2.53125 15.79101562 C-2.49257812 14.77587891 -2.45390625 13.76074219 -2.4140625 12.71484375 C-2.3826416 11.78792725 -2.3512207 10.86101074 -2.31884766 9.90600586 C-2 7 -2 7 0 0 Z " fill="#620E0B" transform="translate(240,0)"/>
<path d="M0 0 C-0.96570225 2.15425887 -1.74631472 3.76745516 -3.5 5.375 C-7.52952996 9.74032412 -7.32823396 15.84002863 -7.4140625 21.4609375 C-7.43342865 22.25150543 -7.4527948 23.04207336 -7.4727478 23.8565979 C-7.53216053 26.36262483 -7.57877427 28.86869865 -7.625 31.375 C-7.66321513 33.08205043 -7.70226889 34.78908231 -7.7421875 36.49609375 C-7.83783011 40.66391044 -7.92200115 44.8318173 -8 49 C-8.33 49 -8.66 49 -9 49 C-9.33 40.75 -9.66 32.5 -10 24 C-10.33 24 -10.66 24 -11 24 C-11.33 18.06 -11.66 12.12 -12 6 C-9.8614515 8.1385485 -9.57344937 9.13275314 -9 12 C-8.5875 10.7625 -8.175 9.525 -7.75 8.25 C-6.33648628 4.47169793 -4.59382296 0 0 0 Z " fill="#252525" transform="translate(397,1)"/>
<path d="M0 0 C2 2 2 2 2.8125 4.375 C4.35274114 7.77974357 5.80770323 9.05686284 9 11 C11.74042755 11.66700972 14.1540878 11.85770439 17 12 C17.33 11.67 17.66 11.34 18 11 C19.66617115 10.95936168 21.33388095 10.957279 23 11 C23 10.34 23 9.68 23 9 C24.65 8.34 26.3 7.68 28 7 C27.01526648 9.85572721 26.0416157 10.97012206 23.5625 12.75 C18.05482 14.6825193 12.43676687 15.08239811 6.8046875 13.30859375 C3.58566003 11.69908002 2.11441981 10.23878917 0.5625 7 C0 4 0 4 0 0 Z " fill="#A3221D" transform="translate(271,49)"/>
<path d="M0 0 C0.99 0.33 1.98 0.66 3 1 C3.86419223 3.59257669 4.17580932 5.34037707 4.31640625 8.01171875 C4.35830078 8.76904297 4.40019531 9.52636719 4.44335938 10.30664062 C4.48267578 11.09232422 4.52199219 11.87800781 4.5625 12.6875 C4.60568359 13.48478516 4.64886719 14.28207031 4.69335938 15.10351562 C4.79927368 17.06881447 4.90012551 19.03438496 5 21 C3 18 3 18 2 13 C1.67 17.62 1.34 22.24 1 27 C0.67 27 0.34 27 0 27 C0 18.09 0 9.18 0 0 Z " fill="#740D0B" transform="translate(317,35)"/>
<path d="M0 0 C2.09715785 3.14573677 2.52004559 5.01456251 3.125 8.6875 C3.29257812 9.68136719 3.46015625 10.67523438 3.6328125 11.69921875 C3.75398438 12.45847656 3.87515625 13.21773437 4 14 C2.06325815 14.19517554 0.12555991 14.38087873 -1.8125 14.5625 C-2.89144531 14.66691406 -3.97039062 14.77132812 -5.08203125 14.87890625 C-8 15 -8 15 -11 14 C-11 12.35 -11 10.7 -11 9 C-10.34 9 -9.68 9 -9 9 C-8.67 9.66 -8.34 10.32 -8 11 C-5.36 11 -2.72 11 0 11 C0 7.37 0 3.74 0 0 Z " fill="#98201C" transform="translate(333,48)"/>
<path d="M0 0 C2.95962371 0.87988813 4.66659387 1.59739637 6.65625 4 C8.52317085 8.16800933 8.32622029 11.80586919 8.1875 16.3125 C8.17396484 17.14845703 8.16042969 17.98441406 8.14648438 18.84570312 C8.11131217 20.89741498 8.05751048 22.94879275 8 25 C4.04 25 0.08 25 -4 25 C-4 24.67 -4 24.34 -4 24 C-0.37 24 3.26 24 7 24 C6.26972167 11.47384132 6.26972167 11.47384132 0 1 C0 0.67 0 0.34 0 0 Z " fill="#6E100E" transform="translate(293,1)"/>
<path d="M0 0 C0.33 0 0.66 0 1 0 C1.05534912 0.55985596 1.11069824 1.11971191 1.16772461 1.6965332 C1.4207582 4.23555805 1.6790698 6.774019 1.9375 9.3125 C2.02451172 10.19357422 2.11152344 11.07464844 2.20117188 11.98242188 C2.28818359 12.82998047 2.37519531 13.67753906 2.46484375 14.55078125 C2.543396 15.33106689 2.62194824 16.11135254 2.70288086 16.9152832 C2.96337997 19.18882001 2.96337997 19.18882001 4 22 C4.08021999 23.40824893 4.10765977 24.81997231 4.09765625 26.23046875 C4.09443359 27.03291016 4.09121094 27.83535156 4.08789062 28.66210938 C4.07951172 29.49548828 4.07113281 30.32886719 4.0625 31.1875 C4.05798828 32.03248047 4.05347656 32.87746094 4.04882812 33.74804688 C4.03705403 35.83206155 4.0191189 37.91603977 4 40 C3.34 40 2.68 40 2 40 C-0.38776806 13.24874212 -0.38776806 13.24874212 0 0 Z " fill="#C52A21" transform="translate(261,6)"/>
<path d="M0 0 C0.69738281 0.01353516 1.39476562 0.02707031 2.11328125 0.04101562 C3.82585541 0.0762055 5.53802941 0.13000845 7.25 0.1875 C7.58 1.5075 7.91 2.8275 8.25 4.1875 C2.97 3.5275 -2.31 2.8675 -7.75 2.1875 C-7.75 2.8475 -7.75 3.5075 -7.75 4.1875 C-11.21153846 7.1875 -11.21153846 7.1875 -13.75 7.1875 C-10.96432766 0.45545852 -6.84413633 -0.25228858 0 0 Z " fill="#AA241F" transform="translate(285.75,-0.1875)"/>
<path d="M0 0 C2.64624284 0.14021805 5.29184578 0.28689776 7.9375 0.4375 C9.06961914 0.49647461 9.06961914 0.49647461 10.22460938 0.55664062 C15.88671875 0.88671875 15.88671875 0.88671875 17 2 C17.07244053 4.01964199 17.08377188 6.04167124 17.0625 8.0625 C17.05347656 9.16722656 17.04445313 10.27195312 17.03515625 11.41015625 C17.02355469 12.26480469 17.01195312 13.11945312 17 14 C16.67 14 16.34 14 16 14 C16 10.37 16 6.74 16 3 C10.39 3 4.78 3 -1 3 C-0.67 2.01 -0.34 1.02 0 0 Z " fill="#545454" transform="translate(441,48)"/>
<path d="M0 0 C0.33 0.66 0.66 1.32 1 2 C5.95 2 10.9 2 16 2 C16 6.29 16 10.58 16 15 C15.67 15 15.34 15 15 15 C15 11.37 15 7.74 15 4 C9.72 4 4.44 4 -1 4 C-0.67 2.68 -0.34 1.36 0 0 Z " fill="#565656" transform="translate(371,47)"/>
<path d="M0 0 C0.33 0 0.66 0 1 0 C0.855625 1.134375 0.71125 2.26875 0.5625 3.4375 C0.47355469 4.16839844 0.38460938 4.89929688 0.29296875 5.65234375 C0.10132839 7.1880218 -0.10386996 8.72208397 -0.32421875 10.25390625 C-1.01592494 15.4192447 -0.8421779 19.85335726 0 25 C-2 23.625 -2 23.625 -4 21 C-4.35791096 17.6419531 -4.23115823 14.36463643 -4 11 C-3.34 11 -2.68 11 -2 11 C-1.855625 9.9275 -1.71125 8.855 -1.5625 7.75 C-1.16250558 5.08337051 -0.72408076 2.58600271 0 0 Z " fill="#7D150E" transform="translate(331,14)"/>
<path d="M0 0 C2 2 2 2 2.1953125 5.6953125 C2.182009 7.17200108 2.15814835 8.64862358 2.125 10.125 C2.11597656 10.87910156 2.10695312 11.63320313 2.09765625 12.41015625 C2.0740687 14.27357254 2.03819719 16.13682593 2 18 C1.34 18 0.68 18 0 18 C0 19.65 0 21.3 0 23 C-0.33 23 -0.66 23 -1 23 C-0.67 15.41 -0.34 7.82 0 0 Z " fill="#791112" transform="translate(238,7)"/>
<path d="M0 0 C0.33 0 0.66 0 1 0 C2.03026944 6.69675136 2.10152799 13.2314676 2 20 C3.32 20.33 4.64 20.66 6 21 C6 21.66 6 22.32 6 23 C4.02 23 2.04 23 0 23 C-0.19635974 19.54210946 -0.38058252 16.08367803 -0.5625 12.625 C-0.61857422 11.64015625 -0.67464844 10.6553125 -0.73242188 9.640625 C-0.80493164 8.22910156 -0.80493164 8.22910156 -0.87890625 6.7890625 C-0.9260376 5.91975098 -0.97316895 5.05043945 -1.02172852 4.15478516 C-1 2 -1 2 0 0 Z " fill="#A2231C" transform="translate(212,1)"/>
<path d="M0 0 C2.05078125 0.03255208 4.1015625 0.06510417 6.15234375 0.09765625 C6.15234375 0.42765625 6.15234375 0.75765625 6.15234375 1.09765625 C3.84234375 1.42765625 1.53234375 1.75765625 -0.84765625 2.09765625 C-1.17765625 5.39765625 -1.50765625 8.69765625 -1.84765625 12.09765625 C-5.25864793 12.09765625 -8.47853939 11.60620219 -11.84765625 11.09765625 C-11.84765625 8.12765625 -11.84765625 5.15765625 -11.84765625 2.09765625 C-11.51765625 2.09765625 -11.18765625 2.09765625 -10.84765625 2.09765625 C-10.84765625 4.73765625 -10.84765625 7.37765625 -10.84765625 10.09765625 C-8.20765625 10.09765625 -5.56765625 10.09765625 -2.84765625 10.09765625 C-2.85925781 9.45957031 -2.87085938 8.82148437 -2.8828125 8.1640625 C-2.89183594 7.33777344 -2.90085938 6.51148438 -2.91015625 5.66015625 C-2.92175781 4.83644531 -2.93335938 4.01273438 -2.9453125 3.1640625 C-2.8198894 0.51010975 -2.66068535 0.14062819 0 0 Z " fill="#CB2A22" transform="translate(247.84765625,49.90234375)"/>
<path d="M0 0 C0.8146875 0.00257812 1.629375 0.00515625 2.46875 0.0078125 C3.2834375 0.00523438 4.098125 0.00265625 4.9375 0 C6.96875 0.1328125 6.96875 0.1328125 7.96875 1.1328125 C8.00938832 2.79898365 8.011471 4.46669345 7.96875 6.1328125 C6.97875 6.4628125 5.98875 6.7928125 4.96875 7.1328125 C4.96875 5.1528125 4.96875 3.1728125 4.96875 1.1328125 C2.98875 1.1328125 1.00875 1.1328125 -1.03125 1.1328125 C-0.99 2.2259375 -0.94875 3.3190625 -0.90625 4.4453125 C-1.03125 8.1328125 -1.03125 8.1328125 -3.03125 11.1328125 C-3.05813151 9.48706684 -3.07759123 7.84119837 -3.09375 6.1953125 C-3.10535156 5.27878906 -3.11695313 4.36226562 -3.12890625 3.41796875 C-3.00402422 0.49572926 -2.91184986 0.19039018 0 0 Z " fill="#8B1912" transform="translate(249.03125,50.8671875)"/>
<path d="M0 0 C0.33 0 0.66 0 1 0 C2.7900288 6.15322401 4.72735422 13.14667135 1.984375 19.265625 C1.65953125 19.83796875 1.3346875 20.4103125 1 21 C0.06145994 13.96094956 -0.10808032 7.09727428 0 0 Z " fill="#515151" transform="translate(21,17)"/>
<path d="M0 0 C0.33 0 0.66 0 1 0 C2.01742921 4.69749233 1.88405135 8.56693073 1.1875 13.3125 C1.01605469 14.54613281 0.84460938 15.77976562 0.66796875 17.05078125 C0.33732422 18.51064453 0.33732422 18.51064453 0 20 C-0.66 20.33 -1.32 20.66 -2 21 C-2.02686553 19.02090602 -2.04633375 17.04171029 -2.0625 15.0625 C-2.07410156 13.96035156 -2.08570313 12.85820312 -2.09765625 11.72265625 C-2 9 -2 9 -1 8 C-0.76924918 6.65252916 -0.58846937 5.29622435 -0.4375 3.9375 C-0.293125 2.638125 -0.14875 1.33875 0 0 Z " fill="#C6281E" transform="translate(249,11)"/>
<path d="M0 0 C0 0.99 0 1.98 0 3 C-4.01455747 6.59925842 -7.42481293 7.12441397 -12.6875 7.0625 C-13.68136719 7.05347656 -14.67523438 7.04445313 -15.69921875 7.03515625 C-16.83810547 7.01775391 -16.83810547 7.01775391 -18 7 C-18 6.67 -18 6.34 -18 6 C-15.94921875 5.77213542 -13.8984375 5.54427083 -11.84765625 5.31640625 C-9.98859771 5.18113386 -9.98859771 5.18113386 -9 4 C-7.33382885 3.95936168 -5.66611905 3.957279 -4 4 C-4 3.34 -4 2.68 -4 2 C-2.68 1.34 -1.36 0.68 0 0 Z " fill="#7F1511" transform="translate(298,56)"/>
<path d="M0 0 C0.66 0 1.32 0 2 0 C2.33 0.66 2.66 1.32 3 2 C6.3 2 9.6 2 13 2 C13 2.66 13 3.32 13 4 C11.72125 4.144375 10.4425 4.28875 9.125 4.4375 C6.74307106 4.70642746 5.15547309 4.92226346 3 6 C2.01 5.67 1.02 5.34 0 5 C0 3.35 0 1.7 0 0 Z " fill="#B3241D" transform="translate(322,57)"/>
<path d="M0 0 C-1.30574169 2.91280837 -2.7074208 4.80294493 -5 7 C-5.66 7.99 -6.32 8.98 -7 10 C-6.67506385 6.4257023 -6.36129314 4.44287547 -4.0625 1.625 C-2 -0 -2 -0 0 0 Z " fill="#959595" transform="translate(397,1)"/>
<path d="M0 0 C0.33 0 0.66 0 1 0 C1.33 1.98 1.66 3.96 2 6 C4.97 6.33 7.94 6.66 11 7 C11 7.33 11 7.66 11 8 C9.35492782 8.19406478 7.70890406 8.38007935 6.0625 8.5625 C4.68771484 8.71912109 4.68771484 8.71912109 3.28515625 8.87890625 C2.53105469 8.91886719 1.77695312 8.95882812 1 9 C0 8 0 8 -0.09765625 6.15234375 C-0.06510417 4.1015625 -0.03255208 2.05078125 0 0 Z " fill="#BA3129" transform="translate(305,54)"/>
<path d="M0 0 C1.85776765 3.13498292 2.20140476 5.37471432 2 9 C1.34 8.67 0.68 8.34 0 8 C-0.73075648 5.6859378 -1.40138258 3.35171131 -2 1 C-1.34 0.67 -0.68 0.34 0 0 Z " fill="#941912" transform="translate(331,39)"/>
<path d="M0 0 C0.66 0 1.32 0 2 0 C2 0.99 2 1.98 2 3 C-1.33333333 6 -1.33333333 6 -4 6 C-2.84826645 3.53199953 -1.95216435 1.95216435 0 0 Z " fill="#891D15" transform="translate(276,1)"/>
</svg>
